<?xml version="1.0" encoding="UTF-8" standalone="no"?>
<!DOCTYPE svg PUBLIC "-//W3C//DTD SVG 1.1//EN"
"http://www.w3.org/Graphics/SVG/1.1/DTD/svg11.dtd">


<!-- Page 1 -->
<svg x="0" y="0" width="759" height="310" viewBox="0 0 759 310" version="1.1" xmlns="http://www.w3.org/2000/svg" xmlns:xlink="http://www.w3.org/1999/xlink"
style="display: block;margin-left: auto;margin-right: auto;">
<defs>
<clipPath id="c0_1"><path d="M-180.9,671.5V-153.4H1010.6V671.5Z" /></clipPath>
<clipPath id="c1_1"><path d="M1010.6,671.5H-180.9V-153.4H1010.6V671.5Z" /></clipPath>
<clipPath id="c2_1"><path d="M-180.9,671.5V-153.4H1010.6V671.5H-180.9Z" /></clipPath>

<style type="text/css"><![CDATA[
text { white-space: pre; }
path, image { pointer-events: none; }

.s1_1{
font-size: 12.28px;
font-family: Cambria_i;
fill: #000000;
}
.s2_1{
font-size: 10.63px;
font-family: CambriaMath_e;
fill: #000000;
}
.s3_1{
font-size: 9.17px;
font-family: Cambria_q;
fill: #000000;
}
.s4_1{
font-size: 9.17px;
font-family: Cambria_i;
fill: #000000;
}
.s5_1{
font-size: 15.22px;
font-family: Cambria_i;
fill: #000000;
}
.s6_1{
font-size: 9.17px;
font-family: CambriaMath_t;
fill: #000000;
}

.g0_1{
fill: #FFFFFF;
}
.g1_1{
fill: #EEECE1;
fill-opacity: 0.580392;
}
.g2_1{
fill: none;
stroke: #4F6228;
stroke-width: 0.73333335;
stroke-linecap: butt;
stroke-linejoin: round;
stroke-dasharray: 3,3;
}
.g3_1{
fill: #E6E0EC;
}
.g4_1{
fill: none;
stroke: #604A7B;
stroke-width: 1.4666667;
stroke-linecap: butt;
stroke-linejoin: round;
}
.g5_1{
fill: #F2DCDB;
}
.g6_1{
fill: none;
stroke: #953735;
stroke-width: 1.4666667;
stroke-linecap: butt;
stroke-linejoin: round;
}
.g7_1{
fill: #4A452A;
}
.g8_1{
fill: #DCE6F2;
}
.g9_1{
fill: none;
stroke: #376092;
stroke-width: 1.4666667;
stroke-linecap: butt;
stroke-linejoin: round;
}
.g10_1{
fill: none;
stroke: #632523;
stroke-width: 0.73333335;
stroke-linecap: butt;
stroke-linejoin: round;
stroke-dasharray: 3,3;
}
.g11_1{
fill: #632523;
}
.g12_1{
fill: #F2DCDB;
fill-opacity: 0.34902;
}
.g13_1{
fill: #D7E4BD;
}
.g14_1{
fill: none;
stroke: #4F6228;
stroke-width: 1.4666667;
stroke-linecap: butt;
stroke-linejoin: round;
}
.g15_1{
fill: none;
stroke: #4A452A;
stroke-width: 1.5277778;
stroke-linecap: butt;
stroke-linejoin: round;
}
.g16_1{
fill: #FCD5B5;
}
.g17_1{
fill: none;
stroke: #984807;
stroke-width: 1.4666667;
stroke-linecap: butt;
stroke-linejoin: round;
}

]]></style>

</defs>
<path d="M0,0
L0,310
L759,310
L759,0 Z " 
fill="#FFFFFF" stroke="none" />
<g clip-path="url(#c0_1)">
<path fill-rule="evenodd" d="M-180.9,671.5H1010.6V-153.4H-180.9V671.5Z" class="g0_1" />
</g>
<path fill-rule="evenodd" d="M242.6,254.2H60.5c-9.6,0,-17.3,-7.8,-17.3,-17.3V25.8H259.9V236.9c0,9.5,-7.8,17.3,-17.3,17.3Z" class="g1_1" />
<path d="M242.6,254.2H60.5c-9.6,0,-17.3,-7.8,-17.3,-17.3V25.8H259.9V236.9c0,9.5,-7.8,17.3,-17.3,17.3Z" class="g2_1" />
<path fill-rule="evenodd" d="M132.1,72h49.1c4.7,0,8.5,-3.8,8.5,-8.5V43.4h-66V63.5c0,4.7,3.7,8.5,8.4,8.5Z" class="g3_1" />
<path d="M132.1,72h49.1c4.7,0,8.5,-3.8,8.5,-8.5V43.4h-66V63.5c0,4.7,3.7,8.5,8.4,8.5Z" class="g4_1" />
<text x="140" y="60" dx="0,0,0,0.1,0" class="s1_1">Group</text>
<path fill-rule="evenodd" d="M65,130.1h49.1c4.7,0,8.5,-3.8,8.5,-8.5V101.5h-66v20.1c0,4.7,3.7,8.5,8.4,8.5Z" class="g5_1" />
<path d="M65,130.1h49.1c4.7,0,8.5,-3.8,8.5,-8.5V101.5h-66v20.1c0,4.7,3.7,8.5,8.4,8.5Z" class="g6_1" />
<text x="59" y="118" dx="0,0,0,0,0,-0.3,0,0.1,-0.1" class="s1_1">Temp Conv</text>
<path d="M144.2,75.4V77l-.1,1.4l-.1,1.3q0,.1,0,.1l-.1,.6l-.2,.6q-.1,.1,-.1,.2l-.3,.5c0,0,0,.1,-.1,.1l-.4,.5v.1l-.5,.4q-.1,.1,-.1,.1l-.7,.4l-.9,.5l-1,.4l-1.2,.4l-1.4,.3l-.9,.2l-.9,.1l-1,.1l-1,.1l-1.2,.1h-1.2l-2.6,.1h-5.7l-3,-.1h-6.1l-3,-.1h-2.9l-2.7,.1l-2.5,.1l-1.1,.1l-1.1,.1l-1,.1l-.9,.2l-.8,.2l-.8,.1l-1.2,.5l-1,.6l-.9,.7v-.1l-.8,.8l-.6,.8l-.5,.9l-.4,1l-.3,1l-.2,1l-.1,.8l-1.5,-.2l.1,-.9l.3,-1.2L89.8,91l.5,-1.1l.6,-1.1l.8,-1l.8,-.8l.1,-.1l1,-.7l1.3,-.7L96.3,85l.7,-.3l.9,-.1l1,-.2l1,-.1l1.2,-.1l1.1,-.1l2.6,-.1l2.7,-.1h5.9l3.1,.1h6l3,.1h2.7l2.5,-.1l1.2,-.1H133l1.1,-.1l.9,-.1l.8,-.1l.8,-.2l1.3,-.3l1.1,-.3l.9,-.4l.8,-.4l.6,-.4l-.1,.1l.5,-.5v.1l.4,-.5l-.1,.1l.3,-.5l-.1,.1l.2,-.4l.1,-.6v.1l.1,-1.3V76.9l.1,-1.6l1.5,.1ZM89.8,94.3l4.6,-3.1l-4.5,9.2L85.2,91.3l4.6,3Z" class="g7_1" />
<path fill-rule="evenodd" d="M193,130.1h49.1c4.6,0,8.4,-3.8,8.4,-8.5V101.5h-66v20.1c0,4.7,3.8,8.5,8.5,8.5Z" class="g5_1" />
<path d="M193,130.1h49.1c4.6,0,8.4,-3.8,8.4,-8.5V101.5h-66v20.1c0,4.7,3.8,8.5,8.5,8.5Z" class="g6_1" />
<text x="186" y="118" dx="0,0,0,0,0,-0.3,0,0.1,-0.1" class="s1_1">Temp Conv</text>
<g clip-path="url(#c0_1)">
<path d="M166.3,75.6l.1,1.6v1.4l.1,1.4c0,0,0,.1,0,.1l.2,.6l.2,.6c0,0,0,.1,0,.1l.3,.6c0,0,.1,0,.1,.1l.4,.4q0,.1,.1,.1l.5,.5l.7,.5l.9,.4l1,.4l1.3,.4l1.4,.4l.8,.1l.9,.1l1,.2l1.1,.1h1.1l1.2,.1h2.6l2.8,.1l2.9,-.1h6.1l3,-.1H203l2.7,.1l2.5,.1l1.2,.1l1.1,.1l.9,.1l1,.1l.8,.2l.7,.2l1.2,.5l1.1,.6l.9,.6H217l.8,.8l.6,.8l.5,.9l.4,.9l.3,1l.2,1.1l.2,.7l1.5,-.2l-.2,-.9l-.2,-1.1l-.4,-1.2l-.5,-1.1l-.6,-1l-.7,-1l-.8,-.8c-.1,0,-.1,-.1,-.1,-.1l-1.1,-.8l-1.2,-.6l-1.4,-.6l-.8,-.2l-.9,-.2l-1,-.1l-1,-.1l-1.1,-.1l-1.2,-.1l-2.6,-.2H194l-3,.1h-8.7l-2.5,-.1h-1.2l-1.1,-.1l-1,-.1h-1l-.8,-.2l-.8,-.1l-1.3,-.3L171.5,83l-.9,-.3l-.7,-.4l-.6,-.4l-.5,-.4l.1,.1l-.4,-.5l.1,.1l-.3,-.5v.1l-.2,-.5l-.1,-.6v.1l-.1,-1.2V77.2l-.1,-1.6h-1.5Zm54.4,19l-4.5,-3.2l4.4,9.3l4.7,-9.1l-4.6,3Z" class="g7_1" />
</g>
<text x="86" y="17" dx="0,2.3,2.3,2.5,2.3,2.6,2.3" class="s2_1">T×L×L×C</text>
<g clip-path="url(#c0_1)">
<path d="M156.3,17V33.9h1.5V17h-1.5Zm.7,16.9l-4.6,-3l4.6,9.2l4.6,-9.2l-4.6,3Z" class="g7_1" />
</g>
<text x="144" y="121" dx="0,0,0,0,0.2" class="s3_1">• • •</text>
<text x="128" y="109" dx="0,0.1,-0.1,0,0,0.1,0,0" class="s1_1">N Groups</text>
<path fill-rule="evenodd" d="M115.1,190.2h82c4.7,0,8.5,-3.8,8.5,-8.5V161.6h-99v20.1c0,4.7,3.8,8.5,8.5,8.5Z" class="g3_1" />
<path d="M115.1,190.2h82c4.7,0,8.5,-3.8,8.5,-8.5V161.6h-99v20.1c0,4.7,3.8,8.5,8.5,8.5Z" class="g4_1" />
<text x="114" y="179" dx="0,0,0.1,-0.1,0.1,0,0,-0.4,0,-0.2,0,0,0,0,0,0" class="s1_1">Concat + Shuffle</text>
<g clip-path="url(#c1_1)">
<path d="M87.1,134.7l.1,1.6v1.4l.1,1.4c0,0,.1,0,.1,.1l.1,.5l.2,.7c0,0,.1,.1,.1,.1l.3,.5q0,.1,0,.1l.4,.5q.1,.1,.1,.1l.5,.5q.1,0,.1,0l.7,.5l.8,.4l1.1,.4l1.2,.4l1.4,.4l.8,.1l1,.1l.9,.1l1.1,.1l1.2,.1l1.2,.1h11.2l3.1,-.1h11.6l2.6,.2l1.1,.1l1.1,.1l1,.1l.9,.1l.8,.2l.7,.2l1.3,.5l1,.5l.9,.7l-.1,-.1l.8,.9l.7,.8l.5,.9l.4,.9l.3,1l.2,1l.1,.8l1.5,-.2l-.1,-.9l-.3,-1.2l-.3,-1.1l-.5,-1.1l-.6,-1l-.8,-1l-.8,-.8q0,-.1,-.1,-.1l-1.1,-.8l-1.2,-.7l-1.4,-.5l-.8,-.2l-.8,-.2l-1,-.1l-1.1,-.2l-1.1,-.1h-1.2l-2.5,-.2H114.9l-3.1,.1h-8.6l-2.6,-.1H99.4l-1.1,-.1l-1,-.1l-.9,-.1l-.9,-.1l-.7,-.1l-1.3,-.4l-1.2,-.3l-.9,-.3l-.7,-.4L90,141h.1l-.5,-.4l.1,.1l-.4,-.5l.1,.1l-.3,-.6l.1,.2l-.2,-.5l-.2,-.6l.1,.1l-.2,-1.2v-3.1l-1.6,.1Zm54.5,18.9L137,150.5l4.5,9.2l4.7,-9.1l-4.6,3Z" class="g7_1" />
</g>
<path d="M221.5,134.6l-.1,1.6v1.4l-.1,1.4c0,0,-.1,0,-.1,.1l-.1,.5l-.2,.7l-.4,.6q0,.1,0,.1l-.4,.5c-.1,0,-.1,.1,-.1,.1l-.5,.5l-.8,.5l-.9,.4l-1,.4l-1.2,.4l-1.4,.3l-.8,.2l-1,.1l-1,.1l-1,.1l-1.2,.1H208l-2.5,.1h-8.8l-3,-.1H182l-2.5,.2l-1.1,.1l-1.1,.1l-1,.1l-.9,.1l-.8,.2l-.8,.2l-1.2,.5l-1,.5l-.9,.7l.1,-.1l-.8,.8l-.7,.9l-.5,.9l-.4,.9l-.3,1l-.2,1l-.1,.8l-1.5,-.2l.1,-.9l.3,-1.1l.3,-1.2l.5,-1.1l.6,-1l.8,-1l.8,-.8q0,-.1,.1,-.1l1,-.8l1.3,-.7l1.4,-.5l.7,-.2l.9,-.2l1,-.1l1,-.2l1.2,-.1h1.2l2.5,-.2h14.8l3,.1h5.6l2.6,-.1h1.2l1.1,-.1l1,-.1l.9,-.1l.9,-.1l.7,-.1l1.3,-.4l1.1,-.3l1,-.4l.7,-.3l.6,-.4l.5,-.4l-.1,.1l.4,-.5l-.1,.1l.2,-.5l.2,-.4l.2,-.6l-.1,.1l.1,-1.2l.1,-1.5v-1.6l1.6,.1ZM167,153.5l4.6,-3.1l-4.5,9.2l-4.7,-9.1l4.6,3Z" class="g7_1" />
<path fill-rule="evenodd" d="M132.2,246.1h47.5c5.1,0,9.2,-4.1,9.2,-9.2V214.8h-66v22.1c0,5.1,4.2,9.2,9.3,9.2Z" class="g8_1" />
<path d="M132.2,246.1h47.5c5.1,0,9.2,-4.1,9.2,-9.2V214.8h-66v22.1c0,5.1,4.2,9.2,9.3,9.2Z" class="g9_1" />
<text x="135" y="229" dx="0,0.1,0,-0.1,-0.3,0" class="s1_1">Max 1D</text>
<text x="139" y="240" dx="0,0,0,0,0,0.2,-0.1,0" class="s4_1">k=2, s=2</text>
<g clip-path="url(#c0_1)">
<path d="M156.4,193.7v11.5H158V193.7h-1.6Zm.8,11.5l-4.6,-3.1l4.6,9.2l4.6,-9.2l-4.6,3.1Z" class="g7_1" />
</g>
<path d="M157.8,246.5V269h-1.5V246.5h1.5ZM157,269l4.6,-3.1l-4.6,9.2l-4.6,-9.2L157,269Z" class="g7_1" />
<text x="9" y="141" dx="0,0,-0.3,0,-0.4,0,-0.1,0,-0.4,0,-0.1,0,-0.4,0.1,0.1" class="s2_1">T × L × L × C/N</text>
<text x="9" y="85" dx="0,0,-0.3,0,-0.4,0,-0.1,0,-0.4,0,-0.1,0,-0.4,0.1,0.1" class="s2_1">T × L × L × C/N</text>
<text x="82" y="205" dx="0,2.3,2.3,2.5,2.3,2.5,2.3" class="s2_1">T×L×L×C</text>
<text x="73" y="269" dx="0,-0.1,-0.1,0,-0.3,0,-0.2,0,-0.3,0,-0.2,0,-0.3,0,-0.2" class="s2_1">T/2 × L × L × C</text>
<text x="71" y="299" dx="0,0,0.1,0,0.2,0,-0.1,0,-0.1,0.1,-0.1,0,0,0,0,0,0.4,0.1,0.1,0,-0.1" class="s5_1">(a) Timeception Layer</text>
<path d="M253.8,115.1l22,-.4" class="g10_1" />
<path d="M302.2,25.7l-1.5,.3l-1.8,.6l-1.7,.7l-.9,.4l.7,1.4l.8,-.4l1.5,-.7l1.7,-.5l1.6,-.4l-.4,-1.4Zm-9.9,4.6l-.6,.6l-1,1.1l-.9,1.2l-.7,1.3l-.5,1.1l1.4,.5l.4,-.9l.6,-1.1l.8,-1.1l.9,-1l.6,-.5l-1,-1.2Zm-4.2,10.1v6.1h1.5V40.4h-1.5Zm0,10.7v6.1h1.5V51.1h-1.5Zm0,10.7v6.1h1.5V61.8h-1.5Zm0,10.7v6.1h1.5V72.5h-1.5Zm0,10.7v6.1h1.5V83.2h-1.5Zm0,10.7V100h1.5V93.9h-1.5Zm-.4,10.3l-.4,1.1l-.7,1.1l-.7,1l-1,1l-.5,.5l1,1.1l.7,-.5l1,-1.1l.9,-1.3l.7,-1.3l.4,-1l-1.4,-.6Zm-6.9,7.1l-.9,.5l-1.6,.6l-1.7,.5l-1.4,.4l.4,1.5l1.5,-.4l1.8,-.6l1.6,-.7l1,-.4l-.7,-1.4Zm-10,2.5l-1.6,.1c-.4,0,-.7,.3,-.7,.8c0,.4,.3,.7,.7,.7l2,.1l1.9,.2l.5,.1l.2,-1.5l-.5,-.1l-2,-.2l-2,-.1v1.5h1.6l-.1,-1.6Zm7.1,3l.4,.2l1.6,.6l1.5,.7l1.3,.8l.4,.3l.9,-1.2l-.5,-.4l-1.5,-.9l-1.5,-.7l-1.7,-.7l-.4,-.1l-.5,1.4Zm8.4,5.6l.4,.6l.6,1.1l.4,1.2v-.1l.3,1.3v-.2l.1,1.4h1.5v-.1l-.1,-1.4c0,0,0,-.1,0,-.1l-.3,-1.3l-.1,-.1l-.5,-1.3l-.7,-1.3l-.4,-.6l-1.2,.9Zm1.8,9.8v6.2h1.5v-6.2h-1.5Zm0,10.7V149h1.5v-6.1h-1.5Zm0,10.7v6.1h1.5v-6.1h-1.5Zm0,10.7v6.1h1.5v-6.1h-1.5Zm0,10.7v6.1h1.5V175h-1.5Zm0,10.7v6.1h1.5v-6.1h-1.5Zm0,10.7v6.1h1.5v-6.1h-1.5Zm0,10.7v6.1h1.5v-6.1h-1.5Zm0,10.7v6.1h1.5v-6.1h-1.5Zm0,10.7v6.1h1.5v-6.1h-1.5Zm0,10.7v2.1l.1,1.3q0,.1,0,.2l.3,1.2q0,.1,0,.1l.5,1.3l.1,.1l1.3,-.7l-.4,-1.2v.1l-.3,-1.3v.1l-.1,-1.2v-2.1h-1.5Zm3.9,10.1l.8,.8l1.3,.9l1.5,.9l1.6,.8l.2,.1l.5,-1.5h-.1l-1.4,-.7l-1.4,-.8l-1.2,-.9l-.8,-.7l-1,1.1Zm9.8,4.9l.4,.1l.4,-1.5l-.4,-.1l-.4,1.5Zm.6,-227.8l-2.6,4.9l8.7,-5.5l-9.6,-3.6l3.5,4.2Zm0,227.1l-3.5,4.3l9.6,-3.6l-8.7,-5.5l2.6,4.8Z" class="g11_1" />
<path fill-rule="evenodd" d="M729.1,254.6H341.4c-10.1,0,-18.3,-8.2,-18.3,-18.3V26.1H747.4V236.3c0,10.1,-8.2,18.3,-18.3,18.3Z" class="g12_1" />
<path d="M729.1,254.6H341.4c-10.1,0,-18.3,-8.2,-18.3,-18.3V26.1H747.4V236.3c0,10.1,-8.2,18.3,-18.3,18.3Z" class="g10_1" />
<path fill-rule="evenodd" d="M454,103.1h45.2c5.7,0,10.4,-4.6,10.4,-10.4V67.9h-66V92.7c0,5.8,4.6,10.4,10.4,10.4Z" class="g13_1" />
<path d="M454,103.1h45.2c5.7,0,10.4,-4.6,10.4,-10.4V67.9h-66V92.7c0,5.8,4.6,10.4,10.4,10.4Z" class="g14_1" />
<text x="454" y="84" dx="0,0,0.1,-0.1,0,-0.3,0" class="s1_1">Conv 1D</text>
<text x="460" y="96" dx="0,0,0,0,0,0.2,-0.1,0" class="s4_1">k=3, s=1</text>
<path fill-rule="evenodd" d="M378.3,103.1h45.1c5.8,0,10.5,-4.6,10.5,-10.4V67.9h-66V92.7c0,5.8,4.6,10.4,10.4,10.4Z" class="g8_1" />
<path d="M378.3,103.1h45.1c5.8,0,10.5,-4.6,10.5,-10.4V67.9h-66V92.7c0,5.8,4.6,10.4,10.4,10.4Z" class="g9_1" />
<text x="381" y="84" dx="0,0.1,0,-0.1,-0.3,0" class="s1_1">Max 1D</text>
<text x="384" y="96" dx="0,0,0,0,0,0.2,-0.1,0" class="s4_1">k=2, s=1</text>
<path fill-rule="evenodd" d="M604.3,103.1h45.2c5.7,0,10.4,-4.6,10.4,-10.4V67.9h-66V92.7c0,5.8,4.7,10.4,10.4,10.4Z" class="g13_1" />
<path d="M604.3,103.1h45.2c5.7,0,10.4,-4.6,10.4,-10.4V67.9h-66V92.7c0,5.8,4.7,10.4,10.4,10.4Z" class="g14_1" />
<text x="605" y="84" dx="0,0,0.1,-0.1,0,-0.3,0" class="s1_1">Conv 1D</text>
<text x="610" y="96" dx="0,0,0,0,0,0.2,-0.1,0" class="s4_1">k=7, s=1</text>
<path fill-rule="evenodd" d="M528.6,103.1h45.2c5.7,0,10.4,-4.6,10.4,-10.4V67.9h-66V92.7c0,5.8,4.7,10.4,10.4,10.4Z" class="g13_1" />
<path d="M528.6,103.1h45.2c5.7,0,10.4,-4.6,10.4,-10.4V67.9h-66V92.7c0,5.8,4.7,10.4,10.4,10.4Z" class="g14_1" />
<text x="529" y="84" dx="0,0,0.1,-0.1,0,-0.3,0" class="s1_1">Conv 1D</text>
<text x="530" y="96" dx="0,0,0,0,0.2,0,0,0.2,-0.1,0.2,0,0.2" class="s4_1">k = 5, s = 1</text>
<path d="M553.7,7.8V56.5h1.6V7.8h-1.6Zm.8,48.7l-4.6,-3.1l4.6,9.2l4.6,-9.2l-4.6,3.1Z" class="g7_1" />
<g clip-path="url(#c2_1)">
<path d="M554.5,32.2c1.4,4.6,-1.8,5,18.3,9.2c20.1,4.1,104.9,2.3,117.4,4c16.7,1.8,15.3,13.2,14.3,17.4" class="g15_1" />
</g>
<g clip-path="url(#c0_1)">
<path d="M553.5,37.9l.2,.9c0,0,0,.1,.1,.1l.4,.8q0,.1,0,.1l.6,.8c.1,0,.1,.1,.1,.1l.8,.7l.9,.8l1.2,.7l1.2,.6l1.3,.6l1.5,.6l1.5,.6l1.6,.5l1.6,.5l3.4,1l3.5,.8l1.8,.4l2,.3l2.1,.2l2.2,.2l2.4,.2l2.3,.1l4.9,.2L596,50l2.4,.1l2.3,.2l2.3,.2l2.1,.3l2,.3l1.9,.4l1.7,.5l1.6,.5l1.5,.7l1.3,.7l1.3,.7l1.2,.8l1,.9l.9,.8l.8,.9l.3,.4l1.2,-.9l-.4,-.5l-.8,-1l-1.1,-.9l-1.1,-.9l-1.2,-.9l-1.4,-.8l-1.4,-.7l-1.6,-.7l-1.7,-.6L609.3,50l-1.9,-.4l-2.1,-.4L603.1,49l-2.3,-.2l-2.3,-.2l-2.4,-.2l-4.9,-.2L586.3,48L584,47.9l-2.3,-.2l-2.2,-.2l-2.1,-.2L575.5,47l-1.8,-.4l-3.4,-.8L567,44.9l-1.6,-.5l-1.6,-.5l-1.4,-.6L561,42.8l-1.3,-.6l-1.1,-.6l-1,-.7l-.9,-.6l-.7,-.7v.1l-.5,-.8V39l-.4,-.8l.1,.2l-.2,-.8l-1.5,.3Zm67.7,20l-5.3,-1.3l7.4,7.1l1.2,-10.2l-3.3,4.4Z" class="g7_1" />
<path d="M555.1,32.3l-.2,.8l-.2,.7l-.1,.6l-.1,.6l-.3,.7v.1l-.3,.5c0,0,-.1,.1,-.1,.1l-.4,.5c-.1,0,-.1,.1,-.1,.1l-.7,.4l-.9,.5l-.5,.3l-.6,.2l-.7,.3l-.8,.2l-.8,.3l-.9,.2l-1,.3l-1.1,.3l-1.2,.3l-1.4,.3l-1.4,.3l-1.6,.3l-1.7,.4l-1.8,.4l-1,.2l-1.1,.2l-1.2,.1l-1.2,.2l-1.4,.2l-1.4,.1l-1.5,.1l-1.6,.2l-1.6,.1l-1.7,.1l-3.6,.3l-3.8,.2l-4,.1l-4.3,.2l-4.3,.1l-4.5,.2h-4.6l-4.6,.1l-4.8,.1l-9.5,.1l-4.7,.1h-4.7l-4.6,.1h-8.9l-4.2,.1h-4.1l-3.8,.1h-3.7l-3.4,.1h-1.6l-1.5,.1h-2.8l-1.3,.1H424l-1.2,.1h-1l-.9,.1l-.9,.1l-.7,.1h-.6l-1.5,.2l-1.4,.3l-1.2,.3l-1.2,.3l-1.1,.4l-1,.4l-.9,.5l-.8,.4l-.7,.5l-.7,.6l-.6,.5l-.5,.6l-.9,1.2l.1,-.1l-.8,1.3l-.4,1.3l-.3,1.3l-.1,.6l-1.5,-.2l.1,-.8l.4,-1.4l.5,-1.5l.7,-1.3q0,-.1,.1,-.1L406,50l.6,-.7l.6,-.6l.8,-.6l.8,-.6l1,-.5l.9,-.5l1.1,-.5l1.2,-.3l1.2,-.4l1.4,-.3l1.4,-.3l1.5,-.2l.7,-.1h.7l.9,-.1l.9,-.1h1.1l1.1,-.1h1.2l1.3,-.1h1.4l1.4,-.1h3.2l3.4,-.1l3.6,-.1h3.9l4.1,-.1H456l4.5,-.1h9.3l4.7,-.1l9.5,-.1l4.7,-.1l4.7,-.1L498,43l4.4,-.1l4.4,-.1l4.2,-.2l4,-.2l3.8,-.2l3.6,-.2l1.7,-.1l1.6,-.1l1.6,-.2l1.4,-.1l1.5,-.2l1.3,-.1l1.2,-.2l1.2,-.2l1,-.1l1,-.2l1.8,-.4l1.7,-.3l1.6,-.4l1.4,-.3l1.3,-.3l1.2,-.3l1.1,-.3l1,-.2l.9,-.3l.8,-.2l.7,-.3L550,37l.5,-.2l.5,-.2l.7,-.4l.6,-.5l-.1,.2l.5,-.5l-.1,.1l.3,-.5l-.1,.1l.2,-.4l.1,-.6l.1,-.6l.2,-.8l.2,-.8l1.5,.4ZM403.9,56.5l4.4,-3.3l-4,9.4l-5.1,-8.8l4.7,2.7Z" class="g7_1" />
<path d="M554.6,37.8l-.2,.8c0,0,0,.1,0,.1l-.4,.8c0,.1,-.1,.1,-.1,.1l-.6,.8c0,0,0,.1,-.1,.1l-.7,.7l-1,.8l-1.1,.7l-1.2,.6l-1.4,.6l-1.4,.6l-1.5,.6l-1.6,.5l-1.7,.5l-3.3,1l-3.5,.8l-1.8,.4l-2,.3l-2.2,.2l-2.2,.2l-2.3,.2l-2.4,.1l-4.9,.2l-4.9,.3l-2.3,.1l-2.4,.2l-2.2,.2l-2.2,.3l-2,.3l-1.8,.4l-1.7,.5l-1.6,.5l-1.5,.7l-1.4,.7l-1.3,.7l-1.1,.8l-1,.9l-1,.8l-.7,.9l-.4,.4l-1.2,-.9l.4,-.5l.9,-1l1,-.9l1.1,-.9l1.3,-.9l1.3,-.8l1.5,-.7l1.6,-.7l1.7,-.6l1.8,-.5l1.9,-.4l2,-.4l2.2,-.2l2.3,-.3l2.4,-.1l2.4,-.2L517,48l4.8,-.2l2.4,-.1l2.3,-.2l2.2,-.2l2,-.2l2,-.3l1.7,-.4l3.4,-.8l3.4,-.9l1.6,-.5l1.5,-.6l1.5,-.5l1.4,-.6l1.2,-.5l1.2,-.6l1,-.7l.8,-.6l.8,-.7l-.1,.1l.6,-.8l-.1,.1L553,38v.2l.2,-.8l1.4,.4ZM486.9,57.7l5.4,-1.3l-7.4,7.1L483.6,53.3l3.3,4.4Z" class="g7_1" />
</g>
<path fill-rule="evenodd" d="M378.5,163.6h45.1c5.8,0,10.4,-4.6,10.4,-10.4V128.4H368v24.8c0,5.8,4.7,10.4,10.5,10.4Z" class="g16_1" />
<path d="M378.5,163.6h45.1c5.8,0,10.4,-4.6,10.4,-10.4V128.4H368v24.8c0,5.8,4.7,10.4,10.5,10.4Z" class="g17_1" />
<text x="379" y="145" dx="0,0,0.1,-0.1,0,-0.3,0" class="s1_1">Conv 2D</text>
<text x="378" y="156" dx="0,0,-0.1,0,0,0,0,0.4,-0.1,-0.1" class="s6_1">k=1x1, s=1</text>
<g clip-path="url(#c0_1)">
<path d="M398.4,107.2v11.4H400V107.2h-1.6Zm.8,11.4l-4.6,-3l4.6,9.2l4.6,-9.2l-4.6,3Z" class="g7_1" />
</g>
<path fill-rule="evenodd" d="M528.5,238.4h49.1c4.6,0,8.4,-3.8,8.4,-8.4V209.8H520V230c0,4.6,3.8,8.4,8.5,8.4Z" class="g3_1" />
<path d="M528.5,238.4h49.1c4.6,0,8.4,-3.8,8.4,-8.4V209.8H520V230c0,4.6,3.8,8.4,8.5,8.4Z" class="g4_1" />
<text x="534" y="227" dx="0,0,0.1,-0.1,0.1,0" class="s1_1">Concat</text>
<path fill-rule="evenodd" d="M454,163.6h45.2c5.7,0,10.4,-4.6,10.4,-10.4V128.4h-66v24.8c0,5.8,4.6,10.4,10.4,10.4Z" class="g16_1" />
<path d="M454,163.6h45.2c5.7,0,10.4,-4.6,10.4,-10.4V128.4h-66v24.8c0,5.8,4.6,10.4,10.4,10.4Z" class="g17_1" />
<text x="454" y="145" dx="0,0,0.1,-0.1,0,-0.3,0" class="s1_1">Conv 2D</text>
<text x="453" y="156" dx="0,0,-0.1,0,0,0,0,0.4,-0.1,-0.1" class="s6_1">k=1x1, s=1</text>
<path fill-rule="evenodd" d="M528.6,163.6h45.2c5.7,0,10.4,-4.6,10.4,-10.4V128.4h-66v24.8c0,5.8,4.7,10.4,10.4,10.4Z" class="g16_1" />
<path d="M528.6,163.6h45.2c5.7,0,10.4,-4.6,10.4,-10.4V128.4h-66v24.8c0,5.8,4.7,10.4,10.4,10.4Z" class="g17_1" />
<text x="529" y="145" dx="0,0,0.1,-0.1,0,-0.3,0" class="s1_1">Conv 2D</text>
<text x="528" y="156" dx="0,0,-0.1,0,0,0,0,0.4,-0.1,-0.1" class="s6_1">k=1x1, s=1</text>
<path fill-rule="evenodd" d="M604.3,163.6h45.2c5.7,0,10.4,-4.6,10.4,-10.4V128.4h-66v24.8c0,5.8,4.7,10.4,10.4,10.4Z" class="g16_1" />
<path d="M604.3,163.6h45.2c5.7,0,10.4,-4.6,10.4,-10.4V128.4h-66v24.8c0,5.8,4.7,10.4,10.4,10.4Z" class="g17_1" />
<text x="605" y="145" dx="0,0,0.1,-0.1,0,-0.3,0" class="s1_1">Conv 2D</text>
<text x="602" y="156" dx="0,0,0,-0.1,0,0,0,0,0.4,-0.1,-0.1" class="s6_1">k =1x1, s=1</text>
<path d="M553.8,241.5v26.9h-1.5V241.5h1.5Zm-.8,26.9l4.6,-3l-4.6,9.1l-4.6,-9.1l4.6,3Z" class="g7_1" />
<g clip-path="url(#c0_1)">
<path d="M472,107.2v11.4h1.5V107.2H472Zm.7,11.4l-4.6,-3l4.6,9.2l4.6,-9.2l-4.6,3Z" class="g7_1" />
<path d="M551.5,107.2v11.4h1.6V107.2h-1.6Zm.8,11.4l-4.6,-3l4.6,9.2l4.6,-9.2l-4.6,3Z" class="g7_1" />
<path d="M626.1,107.2v11.4h1.6V107.2h-1.6Zm.8,11.4l-4.6,-3l4.6,9.2l4.6,-9.2l-4.6,3Z" class="g7_1" />
</g>
<path d="M553.3,198.7c1.4,-4.6,-1.8,-5,18.3,-9.2c20,-4.1,104.9,-2.3,117.4,-4c16.7,-1.8,15.2,-13.2,14.3,-17.4" class="g15_1" />
<g clip-path="url(#c1_1)">
<path d="M553,193.8c.6,-4.5,10.2,-7.4,19.3,-9.6c9.2,-2.1,26,-.9,35.6,-3.3c9.7,-2.4,14.7,-8.8,14.2,-13" class="g15_1" />
</g>
<g clip-path="url(#c0_1)">
<path d="M552.5,198.5c-1.4,-4.5,1.8,-5,-18.3,-9.1c-20,-4.2,-104.9,-2.3,-117.4,-4.1C400.1,183.5,401.6,172.1,402.5,168" class="g15_1" />
</g>
<g clip-path="url(#c1_1)">
<path d="M552.7,193c-.5,-4.5,-10.1,-7.5,-19.3,-9.6c-9.1,-2.2,-25.9,-1,-35.6,-3.4c-9.6,-2.4,-14.7,-8.8,-14.1,-13" class="g15_1" />
</g>
<path d="M553.8,169.5v30.2h-1.5V169.5h1.5Zm-.8,30.2l4.6,-3.1l-4.6,9.2l-4.6,-9.2l4.6,3.1Z" class="g7_1" />
<text x="468" y="13" dx="0,0,-0.3,0,-0.4,0,-0.1,0,-0.4,0,-0.1,0,-0.4,0.1,0.1" class="s2_1">T × L × L × C/N</text>
<text x="311" y="55" dx="0,0,-0.3,0,-0.4,0,-0.1,0,-0.4,0,-0.1,0,-0.4,0.1,0.1" class="s2_1">T × L × L × C/N</text>
<text x="311" y="120" dx="0,0,-0.3,0,-0.4,0,-0.1,0,-0.4,0,-0.1,0,-0.4,0.1,0.1" class="s2_1">T × L × L × C/N</text>
<text x="311" y="190" dx="0,0,-0.3,0,-0.4,0,-0.1,0,-0.4,0,-0.1,0,-0.4,0.1,0.1,0,0,0,-0.8,-0.1" class="s2_1">T × L × L × C/(M. N)</text>
<text x="443" y="269" dx="0,0,-0.3,0,-0.4,0,-0.1,0,-0.4,0,-0.1,0,-0.4,0,0.2,-0.1,0,0.1,0,-1,0.1" class="s2_1">T × L × L × 5C/(M. N)</text>
<path fill-rule="evenodd" d="M680.6,163.6h45.2c5.7,0,10.4,-4.6,10.4,-10.4V128.4h-66v24.8c0,5.8,4.6,10.4,10.4,10.4Z" class="g16_1" />
<path d="M680.6,163.6h45.2c5.7,0,10.4,-4.6,10.4,-10.4V128.4h-66v24.8c0,5.8,4.6,10.4,10.4,10.4Z" class="g17_1" />
<text x="681" y="145" dx="0,0,0.1,-0.1,0,-0.3,0" class="s1_1">Conv 2D</text>
<text x="679" y="156" dx="0,0,0,-0.1,0,0,0,0,0.4,-0.1,-0.1" class="s6_1">k =1x1, s=1</text>
<path d="M705.4,57.1V117h-1.5V57.1h1.5Zm-.8,59.9l4.6,-3.1l-4.6,9.2l-4.5,-9.2l4.5,3.1Z" class="g7_1" />
<text x="467" y="299" dx="0,0,-0.1,0,0.3,0,-0.1,0,0,0,-0.1,0.1,0.1,0.3,0,0,-0.1,0,0.2,0,0,0,0,0.1" class="s5_1">(b) Temporal Conv Module</text>


<!-- Any embedded fonts defined here -->
<style type="text/css" ><![CDATA[

@font-face {
	font-family: CambriaMath_e;
	src: url("fonts/CambriaMath_e.woff") format("woff");
}

@font-face {
	font-family: CambriaMath_t;
	src: url("fonts/CambriaMath_t.woff") format("woff");
}

@font-face {
	font-family: Cambria_i;
	src: url("fonts/Cambria_i.woff") format("woff");
}

@font-face {
	font-family: Cambria_q;
	src: url("fonts/Cambria_q.woff") format("woff");
}

]]></style>

</svg>
